# xmcd
#
# Track frame offsets: 
#        150
#        16678
#        33431
#        48402
#
# Disc length: 917 seconds
#
# Revision: 0
# Processed by: cddbd v1.5.2PL0 Copyright (c) Steve Scherf et al.
# Submitted via: ExactAudioCopy v0.99pb5
#
DISCID=24039304
DTITLE=Source of Ignition - What We're Made Of
DYEAR=2007
DGENRE=A Cappella
TTITLE0=Serenity
TTITLE1=Dark Signs
TTITLE2=Take These Words
TTITLE3=Shattered Soul
EXTD=
EXTT0=
EXTT1=
EXTT2=
EXTT3=
PLAYORDER=
